<mxfile host="app.diagrams.net" agent="Mozilla/5.0 (Windows NT 10.0; Win64; x64) AppleWebKit/537.36 (KHTML, like Gecko) Chrome/130.0.0.0 Safari/537.36 OPR/115.0.0.0" version="26.0.4">
  <diagram name="Page-1" id="B-VmODNDQ6UQsuc8tHXx">
    <mxGraphModel grid="0" page="0" gridSize="10" guides="1" tooltips="1" connect="1" arrows="1" fold="1" pageScale="1" pageWidth="850" pageHeight="1100" math="0" shadow="0">
      <root>
        <mxCell id="0" />
        <mxCell id="1" parent="0" />
        <mxCell id="-FDKgQIa3XmzpDf6Ytec-9" style="edgeStyle=none;curved=1;rounded=0;orthogonalLoop=1;jettySize=auto;html=1;entryX=0.5;entryY=0;entryDx=0;entryDy=0;fontSize=12;startSize=8;endSize=8;" edge="1" parent="1" source="-FDKgQIa3XmzpDf6Ytec-1" target="-FDKgQIa3XmzpDf6Ytec-8">
          <mxGeometry relative="1" as="geometry" />
        </mxCell>
        <mxCell id="-FDKgQIa3XmzpDf6Ytec-1" value="PhilTech Management System&lt;div&gt;&lt;br&gt;&lt;/div&gt;&lt;div&gt;Philtech Gives Quality Education&lt;/div&gt;&lt;div&gt;&lt;br&gt;&lt;/div&gt;&lt;div&gt;1), Sign up&lt;/div&gt;&lt;div&gt;2), Log In&lt;/div&gt;&lt;div&gt;3), Exit&lt;/div&gt;&lt;div&gt;&lt;br&gt;&lt;/div&gt;&lt;div&gt;To Choose Press The Number of The Key&lt;/div&gt;" style="strokeWidth=2;html=1;shape=mxgraph.flowchart.delay;whiteSpace=wrap;direction=west;" vertex="1" parent="1">
          <mxGeometry x="31" y="91" width="241" height="133" as="geometry" />
        </mxCell>
        <mxCell id="-FDKgQIa3XmzpDf6Ytec-3" value="Start" style="strokeWidth=2;html=1;shape=mxgraph.flowchart.start_1;whiteSpace=wrap;" vertex="1" parent="1">
          <mxGeometry x="89" y="-19" width="147" height="60" as="geometry" />
        </mxCell>
        <mxCell id="-FDKgQIa3XmzpDf6Ytec-7" style="edgeStyle=none;curved=1;rounded=0;orthogonalLoop=1;jettySize=auto;html=1;entryX=0.45;entryY=1.008;entryDx=0;entryDy=0;entryPerimeter=0;fontSize=12;startSize=8;endSize=8;" edge="1" parent="1" source="-FDKgQIa3XmzpDf6Ytec-3" target="-FDKgQIa3XmzpDf6Ytec-1">
          <mxGeometry relative="1" as="geometry" />
        </mxCell>
        <mxCell id="-FDKgQIa3XmzpDf6Ytec-67" style="edgeStyle=none;curved=1;rounded=0;orthogonalLoop=1;jettySize=auto;html=1;fontSize=12;startSize=8;endSize=8;" edge="1" parent="1" source="-FDKgQIa3XmzpDf6Ytec-8" target="-FDKgQIa3XmzpDf6Ytec-68">
          <mxGeometry relative="1" as="geometry">
            <mxPoint x="154.5" y="400.5" as="targetPoint" />
          </mxGeometry>
        </mxCell>
        <mxCell id="-FDKgQIa3XmzpDf6Ytec-8" value="if 1&amp;nbsp;" style="rhombus;whiteSpace=wrap;html=1;" vertex="1" parent="1">
          <mxGeometry x="117" y="266" width="75" height="89" as="geometry" />
        </mxCell>
        <mxCell id="-FDKgQIa3XmzpDf6Ytec-11" value="PhilTech Management System&lt;div&gt;&lt;br&gt;&lt;/div&gt;&lt;div&gt;Philtech Gives Quality Education&lt;/div&gt;&lt;div&gt;&lt;br&gt;&lt;/div&gt;&lt;div&gt;1), Sign up&lt;/div&gt;&lt;div&gt;2), Log In&lt;/div&gt;&lt;div&gt;3), Exit&lt;/div&gt;&lt;div&gt;&lt;br&gt;&lt;/div&gt;&lt;div&gt;To Choose Press The Number of The Key&lt;/div&gt;" style="strokeWidth=2;html=1;shape=mxgraph.flowchart.delay;whiteSpace=wrap;direction=west;" vertex="1" parent="1">
          <mxGeometry x="31" y="91" width="241" height="133" as="geometry" />
        </mxCell>
        <mxCell id="-FDKgQIa3XmzpDf6Ytec-13" value="username:&lt;div&gt;ID number:&lt;/div&gt;&lt;div&gt;password:&lt;/div&gt;" style="strokeWidth=2;html=1;shape=mxgraph.flowchart.delay;whiteSpace=wrap;direction=west;" vertex="1" parent="1">
          <mxGeometry x="251" y="256" width="184" height="99" as="geometry" />
        </mxCell>
        <mxCell id="-FDKgQIa3XmzpDf6Ytec-16" value="" style="strokeWidth=2;html=1;shape=mxgraph.flowchart.delay;whiteSpace=wrap;" vertex="1" parent="1">
          <mxGeometry x="742" y="295" width="100" height="60" as="geometry" />
        </mxCell>
        <mxCell id="-FDKgQIa3XmzpDf6Ytec-17" value="choose your occupation&lt;div&gt;&lt;br&gt;&lt;/div&gt;&lt;div&gt;1, Student 2, Admin&lt;/div&gt;" style="strokeWidth=2;html=1;shape=mxgraph.flowchart.delay;whiteSpace=wrap;direction=west;" vertex="1" parent="1">
          <mxGeometry x="460" y="409" width="123" height="60" as="geometry" />
        </mxCell>
        <mxCell id="-FDKgQIa3XmzpDf6Ytec-21" style="edgeStyle=none;curved=1;rounded=0;orthogonalLoop=1;jettySize=auto;html=1;fontSize=12;startSize=8;endSize=8;" edge="1" parent="1" source="-FDKgQIa3XmzpDf6Ytec-19">
          <mxGeometry relative="1" as="geometry">
            <mxPoint x="463" y="439" as="targetPoint" />
          </mxGeometry>
        </mxCell>
        <mxCell id="-FDKgQIa3XmzpDf6Ytec-19" value="is the information correct?&lt;div&gt;Y/N?&lt;/div&gt;" style="strokeWidth=2;html=1;shape=mxgraph.flowchart.decision;whiteSpace=wrap;" vertex="1" parent="1">
          <mxGeometry x="296" y="389" width="100" height="100" as="geometry" />
        </mxCell>
        <mxCell id="-FDKgQIa3XmzpDf6Ytec-20" style="edgeStyle=none;curved=1;rounded=0;orthogonalLoop=1;jettySize=auto;html=1;entryX=0.5;entryY=0;entryDx=0;entryDy=0;entryPerimeter=0;fontSize=12;startSize=8;endSize=8;" edge="1" parent="1" source="-FDKgQIa3XmzpDf6Ytec-13" target="-FDKgQIa3XmzpDf6Ytec-19">
          <mxGeometry relative="1" as="geometry" />
        </mxCell>
        <mxCell id="-FDKgQIa3XmzpDf6Ytec-41" style="edgeStyle=none;curved=1;rounded=0;orthogonalLoop=1;jettySize=auto;html=1;fontSize=12;startSize=8;endSize=8;" edge="1" parent="1" source="-FDKgQIa3XmzpDf6Ytec-22" target="-FDKgQIa3XmzpDf6Ytec-42">
          <mxGeometry relative="1" as="geometry">
            <mxPoint x="515" y="638.8333333333335" as="targetPoint" />
          </mxGeometry>
        </mxCell>
        <mxCell id="-FDKgQIa3XmzpDf6Ytec-22" value="1, student" style="strokeWidth=2;html=1;shape=mxgraph.flowchart.decision;whiteSpace=wrap;" vertex="1" parent="1">
          <mxGeometry x="469" y="498" width="92" height="100" as="geometry" />
        </mxCell>
        <mxCell id="-FDKgQIa3XmzpDf6Ytec-23" style="edgeStyle=none;curved=1;rounded=0;orthogonalLoop=1;jettySize=auto;html=1;entryX=0.525;entryY=0.083;entryDx=0;entryDy=0;entryPerimeter=0;fontSize=12;startSize=8;endSize=8;" edge="1" parent="1" source="-FDKgQIa3XmzpDf6Ytec-17" target="-FDKgQIa3XmzpDf6Ytec-22">
          <mxGeometry relative="1" as="geometry" />
        </mxCell>
        <mxCell id="-FDKgQIa3XmzpDf6Ytec-27" style="edgeStyle=none;curved=1;rounded=0;orthogonalLoop=1;jettySize=auto;html=1;entryX=1;entryY=0.5;entryDx=0;entryDy=0;entryPerimeter=0;fontSize=12;startSize=8;endSize=8;" edge="1" parent="1" source="-FDKgQIa3XmzpDf6Ytec-22">
          <mxGeometry relative="1" as="geometry">
            <mxPoint x="597" y="548" as="targetPoint" />
          </mxGeometry>
        </mxCell>
        <mxCell id="-FDKgQIa3XmzpDf6Ytec-75" style="edgeStyle=none;curved=1;rounded=0;orthogonalLoop=1;jettySize=auto;html=1;fontSize=12;startSize=8;endSize=8;" edge="1" parent="1" source="-FDKgQIa3XmzpDf6Ytec-28" target="-FDKgQIa3XmzpDf6Ytec-76">
          <mxGeometry relative="1" as="geometry">
            <mxPoint x="186" y="485.5" as="targetPoint" />
          </mxGeometry>
        </mxCell>
        <mxCell id="-FDKgQIa3XmzpDf6Ytec-28" value="enter userid&lt;div&gt;enter password&lt;/div&gt;" style="strokeWidth=2;html=1;shape=mxgraph.flowchart.delay;whiteSpace=wrap;direction=west;" vertex="1" parent="1">
          <mxGeometry x="134" y="393" width="100" height="60" as="geometry" />
        </mxCell>
        <mxCell id="-FDKgQIa3XmzpDf6Ytec-31" style="edgeStyle=none;curved=1;rounded=0;orthogonalLoop=1;jettySize=auto;html=1;fontSize=12;startSize=8;endSize=8;" edge="1" parent="1" source="-FDKgQIa3XmzpDf6Ytec-30" target="-FDKgQIa3XmzpDf6Ytec-32">
          <mxGeometry relative="1" as="geometry">
            <mxPoint x="646" y="612.1666666666667" as="targetPoint" />
          </mxGeometry>
        </mxCell>
        <mxCell id="-FDKgQIa3XmzpDf6Ytec-30" value="username&lt;div&gt;userid&lt;/div&gt;&lt;div&gt;password&lt;/div&gt;&lt;div&gt;role&lt;/div&gt;" style="strokeWidth=2;html=1;shape=mxgraph.flowchart.delay;whiteSpace=wrap;direction=west;" vertex="1" parent="1">
          <mxGeometry x="596" y="517" width="100" height="60" as="geometry" />
        </mxCell>
        <mxCell id="-FDKgQIa3XmzpDf6Ytec-33" style="edgeStyle=none;curved=1;rounded=0;orthogonalLoop=1;jettySize=auto;html=1;fontSize=12;startSize=8;endSize=8;" edge="1" parent="1" source="-FDKgQIa3XmzpDf6Ytec-32" target="-FDKgQIa3XmzpDf6Ytec-34">
          <mxGeometry relative="1" as="geometry">
            <mxPoint x="733.6666666666667" y="637.9966666666669" as="targetPoint" />
          </mxGeometry>
        </mxCell>
        <mxCell id="-FDKgQIa3XmzpDf6Ytec-37" style="edgeStyle=none;curved=1;rounded=0;orthogonalLoop=1;jettySize=auto;html=1;exitX=0.5;exitY=1;exitDx=0;exitDy=0;fontSize=12;startSize=8;endSize=8;" edge="1" parent="1" source="-FDKgQIa3XmzpDf6Ytec-32" target="-FDKgQIa3XmzpDf6Ytec-38">
          <mxGeometry relative="1" as="geometry">
            <mxPoint x="646" y="703" as="targetPoint" />
          </mxGeometry>
        </mxCell>
        <mxCell id="-FDKgQIa3XmzpDf6Ytec-32" value="is this information correct?&lt;div&gt;Y/N?&lt;/div&gt;" style="rhombus;whiteSpace=wrap;html=1;" vertex="1" parent="1">
          <mxGeometry x="606" y="597.9966666666668" width="80" height="80" as="geometry" />
        </mxCell>
        <mxCell id="-FDKgQIa3XmzpDf6Ytec-34" value="A" style="ellipse;whiteSpace=wrap;html=1;aspect=fixed;" vertex="1" parent="1">
          <mxGeometry x="720" y="619" width="42" height="42" as="geometry" />
        </mxCell>
        <mxCell id="-FDKgQIa3XmzpDf6Ytec-35" value="A" style="ellipse;whiteSpace=wrap;html=1;aspect=fixed;" vertex="1" parent="1">
          <mxGeometry x="313" y="141" width="44" height="44" as="geometry" />
        </mxCell>
        <mxCell id="-FDKgQIa3XmzpDf6Ytec-36" style="edgeStyle=none;curved=1;rounded=0;orthogonalLoop=1;jettySize=auto;html=1;entryX=0.014;entryY=0.446;entryDx=0;entryDy=0;entryPerimeter=0;fontSize=12;startSize=8;endSize=8;" edge="1" parent="1" source="-FDKgQIa3XmzpDf6Ytec-35" target="-FDKgQIa3XmzpDf6Ytec-11">
          <mxGeometry relative="1" as="geometry" />
        </mxCell>
        <mxCell id="-FDKgQIa3XmzpDf6Ytec-38" value="a" style="ellipse;whiteSpace=wrap;html=1;aspect=fixed;" vertex="1" parent="1">
          <mxGeometry x="630.5" y="706" width="31" height="31" as="geometry" />
        </mxCell>
        <mxCell id="-FDKgQIa3XmzpDf6Ytec-40" style="edgeStyle=none;curved=1;rounded=0;orthogonalLoop=1;jettySize=auto;html=1;fontSize=12;startSize=8;endSize=8;" edge="1" parent="1" source="-FDKgQIa3XmzpDf6Ytec-39" target="-FDKgQIa3XmzpDf6Ytec-30">
          <mxGeometry relative="1" as="geometry" />
        </mxCell>
        <mxCell id="-FDKgQIa3XmzpDf6Ytec-39" value="a" style="ellipse;whiteSpace=wrap;html=1;aspect=fixed;" vertex="1" parent="1">
          <mxGeometry x="709" y="532.5" width="29" height="29" as="geometry" />
        </mxCell>
        <mxCell id="-FDKgQIa3XmzpDf6Ytec-44" style="edgeStyle=none;curved=1;rounded=0;orthogonalLoop=1;jettySize=auto;html=1;fontSize=12;startSize=8;endSize=8;" edge="1" parent="1" source="-FDKgQIa3XmzpDf6Ytec-29">
          <mxGeometry relative="1" as="geometry">
            <mxPoint x="540.3333333333335" y="673.0033333333336" as="targetPoint" />
          </mxGeometry>
        </mxCell>
        <mxCell id="-FDKgQIa3XmzpDf6Ytec-42" value="2. admin" style="rhombus;whiteSpace=wrap;html=1;" vertex="1" parent="1">
          <mxGeometry x="396" y="604.0033333333334" width="80" height="80" as="geometry" />
        </mxCell>
        <mxCell id="-FDKgQIa3XmzpDf6Ytec-45" value="" style="edgeStyle=none;curved=1;rounded=0;orthogonalLoop=1;jettySize=auto;html=1;fontSize=12;startSize=8;endSize=8;" edge="1" parent="1" source="-FDKgQIa3XmzpDf6Ytec-42" target="-FDKgQIa3XmzpDf6Ytec-29">
          <mxGeometry relative="1" as="geometry">
            <mxPoint x="540.3333333333335" y="673.0033333333336" as="targetPoint" />
            <mxPoint x="467" y="653" as="sourcePoint" />
          </mxGeometry>
        </mxCell>
        <mxCell id="-FDKgQIa3XmzpDf6Ytec-47" style="edgeStyle=none;curved=1;rounded=0;orthogonalLoop=1;jettySize=auto;html=1;fontSize=12;startSize=8;endSize=8;" edge="1" parent="1" source="-FDKgQIa3XmzpDf6Ytec-29" target="-FDKgQIa3XmzpDf6Ytec-48">
          <mxGeometry relative="1" as="geometry">
            <mxPoint x="549" y="726" as="targetPoint" />
          </mxGeometry>
        </mxCell>
        <mxCell id="-FDKgQIa3XmzpDf6Ytec-29" value="choose your specific occupation&lt;div&gt;1, teacher 2, administration 3,registrar&lt;/div&gt;" style="strokeWidth=2;html=1;shape=mxgraph.flowchart.delay;whiteSpace=wrap;direction=west;" vertex="1" parent="1">
          <mxGeometry x="493" y="619" width="117" height="79" as="geometry" />
        </mxCell>
        <mxCell id="-FDKgQIa3XmzpDf6Ytec-50" value="" style="edgeStyle=none;curved=1;rounded=0;orthogonalLoop=1;jettySize=auto;html=1;fontSize=12;startSize=8;endSize=8;" edge="1" parent="1" source="-FDKgQIa3XmzpDf6Ytec-48" target="-FDKgQIa3XmzpDf6Ytec-49">
          <mxGeometry relative="1" as="geometry" />
        </mxCell>
        <mxCell id="-FDKgQIa3XmzpDf6Ytec-55" style="edgeStyle=none;curved=1;rounded=0;orthogonalLoop=1;jettySize=auto;html=1;entryX=0.5;entryY=0;entryDx=0;entryDy=0;fontSize=12;startSize=8;endSize=8;" edge="1" parent="1" source="-FDKgQIa3XmzpDf6Ytec-48" target="-FDKgQIa3XmzpDf6Ytec-54">
          <mxGeometry relative="1" as="geometry" />
        </mxCell>
        <mxCell id="-FDKgQIa3XmzpDf6Ytec-48" value="if 1" style="rhombus;whiteSpace=wrap;html=1;" vertex="1" parent="1">
          <mxGeometry x="507" y="724" width="80" height="80" as="geometry" />
        </mxCell>
        <mxCell id="-FDKgQIa3XmzpDf6Ytec-49" value="b" style="ellipse;whiteSpace=wrap;html=1;" vertex="1" parent="1">
          <mxGeometry x="614" y="756" width="40" height="40" as="geometry" />
        </mxCell>
        <mxCell id="-FDKgQIa3XmzpDf6Ytec-52" value="b" style="ellipse;whiteSpace=wrap;html=1;aspect=fixed;" vertex="1" parent="1">
          <mxGeometry x="689" y="475" width="23" height="23" as="geometry" />
        </mxCell>
        <mxCell id="-FDKgQIa3XmzpDf6Ytec-53" style="edgeStyle=none;curved=1;rounded=0;orthogonalLoop=1;jettySize=auto;html=1;entryX=0.09;entryY=0.997;entryDx=0;entryDy=0;entryPerimeter=0;fontSize=12;startSize=8;endSize=8;" edge="1" parent="1" source="-FDKgQIa3XmzpDf6Ytec-52" target="-FDKgQIa3XmzpDf6Ytec-30">
          <mxGeometry relative="1" as="geometry" />
        </mxCell>
        <mxCell id="-FDKgQIa3XmzpDf6Ytec-57" style="edgeStyle=none;curved=1;rounded=0;orthogonalLoop=1;jettySize=auto;html=1;entryX=0;entryY=0.5;entryDx=0;entryDy=0;fontSize=12;startSize=8;endSize=8;" edge="1" parent="1" source="-FDKgQIa3XmzpDf6Ytec-54" target="-FDKgQIa3XmzpDf6Ytec-56">
          <mxGeometry relative="1" as="geometry" />
        </mxCell>
        <mxCell id="-FDKgQIa3XmzpDf6Ytec-59" style="edgeStyle=none;curved=1;rounded=0;orthogonalLoop=1;jettySize=auto;html=1;entryX=0.5;entryY=0;entryDx=0;entryDy=0;fontSize=12;startSize=8;endSize=8;" edge="1" parent="1" source="-FDKgQIa3XmzpDf6Ytec-54" target="-FDKgQIa3XmzpDf6Ytec-58">
          <mxGeometry relative="1" as="geometry" />
        </mxCell>
        <mxCell id="-FDKgQIa3XmzpDf6Ytec-54" value="if 2" style="rhombus;whiteSpace=wrap;html=1;" vertex="1" parent="1">
          <mxGeometry x="519" y="826" width="80" height="80" as="geometry" />
        </mxCell>
        <mxCell id="-FDKgQIa3XmzpDf6Ytec-56" value="c" style="ellipse;whiteSpace=wrap;html=1;aspect=fixed;" vertex="1" parent="1">
          <mxGeometry x="619" y="840" width="45" height="45" as="geometry" />
        </mxCell>
        <mxCell id="-FDKgQIa3XmzpDf6Ytec-62" style="edgeStyle=none;curved=1;rounded=0;orthogonalLoop=1;jettySize=auto;html=1;entryX=0;entryY=0.5;entryDx=0;entryDy=0;fontSize=12;startSize=8;endSize=8;" edge="1" parent="1" source="-FDKgQIa3XmzpDf6Ytec-58" target="-FDKgQIa3XmzpDf6Ytec-61">
          <mxGeometry relative="1" as="geometry" />
        </mxCell>
        <mxCell id="-FDKgQIa3XmzpDf6Ytec-58" value="if 3" style="rhombus;whiteSpace=wrap;html=1;" vertex="1" parent="1">
          <mxGeometry x="505" y="926" width="80" height="80" as="geometry" />
        </mxCell>
        <mxCell id="-FDKgQIa3XmzpDf6Ytec-60" value="c" style="ellipse;whiteSpace=wrap;html=1;aspect=fixed;" vertex="1" parent="1">
          <mxGeometry x="646" y="465" width="33" height="33" as="geometry" />
        </mxCell>
        <mxCell id="-FDKgQIa3XmzpDf6Ytec-61" value="d" style="ellipse;whiteSpace=wrap;html=1;aspect=fixed;" vertex="1" parent="1">
          <mxGeometry x="621" y="946.5" width="43" height="43" as="geometry" />
        </mxCell>
        <mxCell id="-FDKgQIa3XmzpDf6Ytec-63" value="d" style="ellipse;whiteSpace=wrap;html=1;aspect=fixed;" vertex="1" parent="1">
          <mxGeometry x="599" y="461" width="37" height="37" as="geometry" />
        </mxCell>
        <mxCell id="-FDKgQIa3XmzpDf6Ytec-64" style="edgeStyle=none;curved=1;rounded=0;orthogonalLoop=1;jettySize=auto;html=1;entryX=0.34;entryY=0.956;entryDx=0;entryDy=0;entryPerimeter=0;fontSize=12;startSize=8;endSize=8;" edge="1" parent="1" source="-FDKgQIa3XmzpDf6Ytec-60" target="-FDKgQIa3XmzpDf6Ytec-30">
          <mxGeometry relative="1" as="geometry" />
        </mxCell>
        <mxCell id="-FDKgQIa3XmzpDf6Ytec-65" style="edgeStyle=none;curved=1;rounded=0;orthogonalLoop=1;jettySize=auto;html=1;entryX=0.698;entryY=0.956;entryDx=0;entryDy=0;entryPerimeter=0;fontSize=12;startSize=8;endSize=8;" edge="1" parent="1" source="-FDKgQIa3XmzpDf6Ytec-63" target="-FDKgQIa3XmzpDf6Ytec-30">
          <mxGeometry relative="1" as="geometry" />
        </mxCell>
        <mxCell id="-FDKgQIa3XmzpDf6Ytec-66" style="edgeStyle=none;curved=1;rounded=0;orthogonalLoop=1;jettySize=auto;html=1;entryX=1;entryY=0.5;entryDx=0;entryDy=0;entryPerimeter=0;fontSize=12;startSize=8;endSize=8;" edge="1" parent="1" source="-FDKgQIa3XmzpDf6Ytec-8" target="-FDKgQIa3XmzpDf6Ytec-13">
          <mxGeometry relative="1" as="geometry" />
        </mxCell>
        <mxCell id="-FDKgQIa3XmzpDf6Ytec-69" style="edgeStyle=none;curved=1;rounded=0;orthogonalLoop=1;jettySize=auto;html=1;fontSize=12;startSize=8;endSize=8;" edge="1" parent="1" source="-FDKgQIa3XmzpDf6Ytec-68">
          <mxGeometry relative="1" as="geometry">
            <mxPoint x="138.66666666666674" y="414.66666666666674" as="targetPoint" />
          </mxGeometry>
        </mxCell>
        <mxCell id="-FDKgQIa3XmzpDf6Ytec-68" value="if 2" style="rhombus;whiteSpace=wrap;html=1;" vertex="1" parent="1">
          <mxGeometry x="-2" y="355" width="80" height="80" as="geometry" />
        </mxCell>
        <mxCell id="-FDKgQIa3XmzpDf6Ytec-104" style="edgeStyle=none;curved=1;rounded=0;orthogonalLoop=1;jettySize=auto;html=1;fontSize=12;startSize=8;endSize=8;" edge="1" parent="1" source="-FDKgQIa3XmzpDf6Ytec-70" target="-FDKgQIa3XmzpDf6Ytec-105">
          <mxGeometry relative="1" as="geometry">
            <mxPoint x="452.8333333333335" y="903" as="targetPoint" />
          </mxGeometry>
        </mxCell>
        <mxCell id="-FDKgQIa3XmzpDf6Ytec-70" value="your enrollment has been submitted" style="strokeWidth=2;html=1;shape=mxgraph.flowchart.delay;whiteSpace=wrap;direction=west;" vertex="1" parent="1">
          <mxGeometry x="323" y="873" width="100" height="60" as="geometry" />
        </mxCell>
        <mxCell id="ED_zbUeDH-0sP7J5wrKH-2" style="edgeStyle=orthogonalEdgeStyle;rounded=0;orthogonalLoop=1;jettySize=auto;html=1;entryX=0.5;entryY=0;entryDx=0;entryDy=0;" edge="1" parent="1" source="-FDKgQIa3XmzpDf6Ytec-71" target="ED_zbUeDH-0sP7J5wrKH-1">
          <mxGeometry relative="1" as="geometry" />
        </mxCell>
        <mxCell id="-FDKgQIa3XmzpDf6Ytec-71" value="SENIOR HIGH&lt;div&gt;&lt;br&gt;&lt;/div&gt;&lt;div&gt;SHS160S.2016/SHS-206S.2017&lt;/div&gt;&lt;div&gt;&lt;br&gt;&lt;/div&gt;&lt;div&gt;Free Tuition Fee&lt;/div&gt;&lt;div&gt;Free Laboratory Fee&lt;/div&gt;&lt;div&gt;Free Miscellaneous Fee&lt;/div&gt;&lt;div&gt;&lt;br&gt;&lt;/div&gt;&lt;div&gt;Includes:&lt;/div&gt;&lt;div&gt;&amp;nbsp;- 1 Set of School Uniform&lt;/div&gt;&lt;div&gt;&amp;nbsp;- 1 SHS T-Shirt&lt;/div&gt;&lt;div&gt;- 1 Set of PE Uniform&lt;/div&gt;&lt;div&gt;- ID with Holder&lt;/div&gt;&lt;div&gt;&amp;nbsp;ACADEMIC TRACK&lt;/div&gt;&lt;div&gt;- Humanities and Social Science&lt;/div&gt;&lt;div&gt;&amp;nbsp;- Accountancy, Business, and Management&lt;/div&gt;&lt;div&gt;&amp;nbsp;- General Academics&lt;/div&gt;&lt;div&gt;&amp;nbsp;TECHNICAL VOCATIONAL LIVELIHOOD TRACK&lt;/div&gt;&lt;div&gt;- Information and Communications Technology&lt;/div&gt;&lt;div&gt;- Home Economics&lt;/div&gt;&lt;div&gt;(X) MENU&amp;nbsp; &amp;nbsp; &amp;nbsp;(ANY KEY) RETURN&lt;/div&gt;" style="strokeWidth=2;html=1;shape=mxgraph.flowchart.delay;whiteSpace=wrap;direction=west;" vertex="1" parent="1">
          <mxGeometry x="-257" y="1162" width="338" height="330" as="geometry" />
        </mxCell>
        <mxCell id="-FDKgQIa3XmzpDf6Ytec-100" style="edgeStyle=none;curved=1;rounded=0;orthogonalLoop=1;jettySize=auto;html=1;fontSize=12;startSize=8;endSize=8;" edge="1" parent="1" source="-FDKgQIa3XmzpDf6Ytec-72" target="-FDKgQIa3XmzpDf6Ytec-101">
          <mxGeometry relative="1" as="geometry">
            <mxPoint x="265" y="879.6666666666667" as="targetPoint" />
          </mxGeometry>
        </mxCell>
        <mxCell id="-FDKgQIa3XmzpDf6Ytec-72" value="name(2-99 characters):&lt;div&gt;age(16-80):&lt;/div&gt;&lt;div&gt;address(5-99 charaters):&lt;/div&gt;&lt;div&gt;email:&lt;/div&gt;&lt;div&gt;contact:&lt;/div&gt;&lt;div&gt;select course:&lt;/div&gt;&lt;div&gt;1, bscs&lt;/div&gt;&lt;div&gt;2, btvted&lt;/div&gt;&lt;div&gt;3, educ&lt;/div&gt;" style="strokeWidth=2;html=1;shape=mxgraph.flowchart.delay;whiteSpace=wrap;direction=west;" vertex="1" parent="1">
          <mxGeometry x="119" y="703.5" width="206" height="145" as="geometry" />
        </mxCell>
        <mxCell id="-FDKgQIa3XmzpDf6Ytec-108" style="edgeStyle=none;curved=1;rounded=0;orthogonalLoop=1;jettySize=auto;html=1;fontSize=12;startSize=8;endSize=8;" edge="1" parent="1" source="-FDKgQIa3XmzpDf6Ytec-73" target="-FDKgQIa3XmzpDf6Ytec-106">
          <mxGeometry relative="1" as="geometry" />
        </mxCell>
        <mxCell id="-FDKgQIa3XmzpDf6Ytec-179" style="edgeStyle=none;curved=1;rounded=0;orthogonalLoop=1;jettySize=auto;html=1;fontSize=12;startSize=8;endSize=8;" edge="1" parent="1" source="-FDKgQIa3XmzpDf6Ytec-73" target="-FDKgQIa3XmzpDf6Ytec-97">
          <mxGeometry relative="1" as="geometry" />
        </mxCell>
        <mxCell id="-FDKgQIa3XmzpDf6Ytec-73" value="&amp;nbsp;Philtech School Management System&lt;div&gt;&amp;nbsp;Choose what you want to use&lt;/div&gt;&lt;div&gt;1, Enrollment&lt;/div&gt;&lt;div&gt;2, View subject List&lt;/div&gt;&lt;div&gt;3, submit eog request&lt;/div&gt;&lt;div&gt;4, about us&lt;/div&gt;&lt;div&gt;5, Log out&lt;/div&gt;" style="strokeWidth=2;html=1;shape=mxgraph.flowchart.delay;whiteSpace=wrap;direction=west;" vertex="1" parent="1">
          <mxGeometry x="114" y="566" width="211" height="127" as="geometry" />
        </mxCell>
        <mxCell id="-FDKgQIa3XmzpDf6Ytec-74" value="welcome to philtech management system&lt;div&gt;welcome user:&lt;/div&gt;&lt;div&gt;&lt;br&gt;&lt;/div&gt;&lt;div&gt;press any key to continue&lt;/div&gt;" style="strokeWidth=2;html=1;shape=mxgraph.flowchart.delay;whiteSpace=wrap;direction=west;" vertex="1" parent="1">
          <mxGeometry x="136" y="469" width="118" height="82" as="geometry" />
        </mxCell>
        <mxCell id="-FDKgQIa3XmzpDf6Ytec-79" style="edgeStyle=none;curved=1;rounded=0;orthogonalLoop=1;jettySize=auto;html=1;fontSize=12;startSize=8;endSize=8;" edge="1" parent="1" source="-FDKgQIa3XmzpDf6Ytec-76" target="-FDKgQIa3XmzpDf6Ytec-80">
          <mxGeometry relative="1" as="geometry">
            <mxPoint x="137" y="579.6666666666667" as="targetPoint" />
          </mxGeometry>
        </mxCell>
        <mxCell id="-FDKgQIa3XmzpDf6Ytec-76" value="is the input correct?" style="rhombus;whiteSpace=wrap;html=1;" vertex="1" parent="1">
          <mxGeometry x="-16" y="465" width="80" height="80" as="geometry" />
        </mxCell>
        <mxCell id="-FDKgQIa3XmzpDf6Ytec-81" style="edgeStyle=none;curved=1;rounded=0;orthogonalLoop=1;jettySize=auto;html=1;fontSize=12;startSize=8;endSize=8;" edge="1" parent="1" source="-FDKgQIa3XmzpDf6Ytec-80" target="-FDKgQIa3XmzpDf6Ytec-82">
          <mxGeometry relative="1" as="geometry">
            <mxPoint x="207" y="608.9966666666669" as="targetPoint" />
          </mxGeometry>
        </mxCell>
        <mxCell id="-FDKgQIa3XmzpDf6Ytec-80" value="invalid credential&lt;div&gt;try again?&lt;/div&gt;&lt;div&gt;Y/N&lt;/div&gt;" style="rhombus;whiteSpace=wrap;html=1;" vertex="1" parent="1">
          <mxGeometry x="-12" y="557.9966666666668" width="80" height="80" as="geometry" />
        </mxCell>
        <mxCell id="-FDKgQIa3XmzpDf6Ytec-82" value="B" style="ellipse;whiteSpace=wrap;html=1;aspect=fixed;" vertex="1" parent="1">
          <mxGeometry x="61" y="548" width="37" height="37" as="geometry" />
        </mxCell>
        <mxCell id="-FDKgQIa3XmzpDf6Ytec-83" value="B" style="ellipse;whiteSpace=wrap;html=1;aspect=fixed;" vertex="1" parent="1">
          <mxGeometry x="251" y="427" width="46" height="46" as="geometry" />
        </mxCell>
        <mxCell id="-FDKgQIa3XmzpDf6Ytec-84" style="edgeStyle=none;curved=1;rounded=0;orthogonalLoop=1;jettySize=auto;html=1;entryX=0.549;entryY=0.978;entryDx=0;entryDy=0;entryPerimeter=0;fontSize=12;startSize=8;endSize=8;" edge="1" parent="1" source="-FDKgQIa3XmzpDf6Ytec-83" target="-FDKgQIa3XmzpDf6Ytec-74">
          <mxGeometry relative="1" as="geometry" />
        </mxCell>
        <mxCell id="-FDKgQIa3XmzpDf6Ytec-86" value="C" style="ellipse;whiteSpace=wrap;html=1;aspect=fixed;" vertex="1" parent="1">
          <mxGeometry x="75" y="589" width="42" height="42" as="geometry" />
        </mxCell>
        <mxCell id="-FDKgQIa3XmzpDf6Ytec-89" value="C" style="ellipse;whiteSpace=wrap;html=1;aspect=fixed;" vertex="1" parent="1">
          <mxGeometry x="185" y="330" width="42" height="42" as="geometry" />
        </mxCell>
        <mxCell id="-FDKgQIa3XmzpDf6Ytec-90" style="edgeStyle=none;curved=1;rounded=0;orthogonalLoop=1;jettySize=auto;html=1;entryX=0.282;entryY=0.933;entryDx=0;entryDy=0;entryPerimeter=0;fontSize=12;startSize=8;endSize=8;" edge="1" parent="1" source="-FDKgQIa3XmzpDf6Ytec-89" target="-FDKgQIa3XmzpDf6Ytec-28">
          <mxGeometry relative="1" as="geometry" />
        </mxCell>
        <mxCell id="-FDKgQIa3XmzpDf6Ytec-92" style="edgeStyle=none;curved=1;rounded=0;orthogonalLoop=1;jettySize=auto;html=1;entryX=1;entryY=0.5;entryDx=0;entryDy=0;entryPerimeter=0;fontSize=12;startSize=8;endSize=8;" edge="1" parent="1" source="-FDKgQIa3XmzpDf6Ytec-76" target="-FDKgQIa3XmzpDf6Ytec-74">
          <mxGeometry relative="1" as="geometry" />
        </mxCell>
        <mxCell id="-FDKgQIa3XmzpDf6Ytec-94" style="edgeStyle=none;curved=1;rounded=0;orthogonalLoop=1;jettySize=auto;html=1;entryX=0.593;entryY=0.964;entryDx=0;entryDy=0;entryPerimeter=0;fontSize=12;startSize=8;endSize=8;" edge="1" parent="1" source="-FDKgQIa3XmzpDf6Ytec-74" target="-FDKgQIa3XmzpDf6Ytec-73">
          <mxGeometry relative="1" as="geometry" />
        </mxCell>
        <mxCell id="-FDKgQIa3XmzpDf6Ytec-97" value="if 1" style="rhombus;whiteSpace=wrap;html=1;" vertex="1" parent="1">
          <mxGeometry x="-235" y="577" width="48" height="53" as="geometry" />
        </mxCell>
        <mxCell id="-FDKgQIa3XmzpDf6Ytec-103" style="edgeStyle=none;curved=1;rounded=0;orthogonalLoop=1;jettySize=auto;html=1;fontSize=12;startSize=8;endSize=8;" edge="1" parent="1" source="-FDKgQIa3XmzpDf6Ytec-101" target="-FDKgQIa3XmzpDf6Ytec-70">
          <mxGeometry relative="1" as="geometry" />
        </mxCell>
        <mxCell id="-FDKgQIa3XmzpDf6Ytec-114" style="edgeStyle=none;curved=1;rounded=0;orthogonalLoop=1;jettySize=auto;html=1;fontSize=12;startSize=8;endSize=8;" edge="1" parent="1" source="-FDKgQIa3XmzpDf6Ytec-101" target="-FDKgQIa3XmzpDf6Ytec-113">
          <mxGeometry relative="1" as="geometry" />
        </mxCell>
        <mxCell id="-FDKgQIa3XmzpDf6Ytec-101" value="is this information correct?&lt;div&gt;Y/N&lt;/div&gt;" style="rhombus;whiteSpace=wrap;html=1;" vertex="1" parent="1">
          <mxGeometry x="189" y="862.9966666666668" width="80" height="80" as="geometry" />
        </mxCell>
        <mxCell id="-FDKgQIa3XmzpDf6Ytec-105" value="D" style="ellipse;whiteSpace=wrap;html=1;aspect=fixed;" vertex="1" parent="1">
          <mxGeometry x="376" y="812" width="47" height="47" as="geometry" />
        </mxCell>
        <mxCell id="-FDKgQIa3XmzpDf6Ytec-106" value="D" style="ellipse;whiteSpace=wrap;html=1;aspect=fixed;" vertex="1" parent="1">
          <mxGeometry x="348" y="596" width="48" height="48" as="geometry" />
        </mxCell>
        <mxCell id="-FDKgQIa3XmzpDf6Ytec-107" value="" style="ellipse;whiteSpace=wrap;html=1;aspect=fixed;" vertex="1" parent="1">
          <mxGeometry x="-356" y="368" width="48" height="48" as="geometry" />
        </mxCell>
        <mxCell id="-FDKgQIa3XmzpDf6Ytec-111" value="teacher:allan vele&lt;div&gt;&lt;div&gt;Schedule:Saturday 7:00 am - 10:00 am&lt;/div&gt;&lt;div&gt;Subject:Understanding the Self (Ge1)&lt;/div&gt;&lt;div&gt;&lt;br&gt;&lt;/div&gt;&lt;div&gt;&amp;nbsp;Press &#39;B&#39; to go back or any other key to return to menu:&lt;/div&gt;&lt;/div&gt;" style="strokeWidth=2;html=1;shape=mxgraph.flowchart.delay;whiteSpace=wrap;direction=west;" vertex="1" parent="1">
          <mxGeometry x="-570.8299999999999" y="737" width="179.67" height="139" as="geometry" />
        </mxCell>
        <mxCell id="-FDKgQIa3XmzpDf6Ytec-123" style="edgeStyle=none;curved=1;rounded=0;orthogonalLoop=1;jettySize=auto;html=1;fontSize=12;startSize=8;endSize=8;" edge="1" parent="1" source="-FDKgQIa3XmzpDf6Ytec-112" target="-FDKgQIa3XmzpDf6Ytec-124">
          <mxGeometry relative="1" as="geometry">
            <mxPoint x="-594.6666666666666" y="774.5" as="targetPoint" />
          </mxGeometry>
        </mxCell>
        <mxCell id="-FDKgQIa3XmzpDf6Ytec-112" value="classroom management&lt;div&gt;&lt;br&gt;&lt;/div&gt;&lt;div&gt;choose a teacher:&lt;/div&gt;&lt;div&gt;&lt;br&gt;&lt;/div&gt;&lt;div&gt;1, allan vele - UTS (ge1)&lt;/div&gt;&lt;div&gt;2, jude rodriguez - MITMW (ge2)&lt;/div&gt;&lt;div&gt;3, nori lacerna - rph (ge3)&lt;/div&gt;&lt;div&gt;4, raiven gordon - ITC (cc111)&lt;/div&gt;&lt;div&gt;5, carl jimenez - FOP - (cc112)&lt;/div&gt;&lt;div&gt;6, micheal atienza - NSTP/PATHFIT/PLS&lt;/div&gt;&lt;div&gt;7, return to menu&lt;/div&gt;" style="strokeWidth=2;html=1;shape=mxgraph.flowchart.delay;whiteSpace=wrap;direction=west;" vertex="1" parent="1">
          <mxGeometry x="-613" y="551" width="225" height="184" as="geometry" />
        </mxCell>
        <mxCell id="-FDKgQIa3XmzpDf6Ytec-117" style="edgeStyle=none;curved=1;rounded=0;orthogonalLoop=1;jettySize=auto;html=1;fontSize=12;startSize=8;endSize=8;" edge="1" parent="1" source="-FDKgQIa3XmzpDf6Ytec-113" target="-FDKgQIa3XmzpDf6Ytec-115">
          <mxGeometry relative="1" as="geometry" />
        </mxCell>
        <mxCell id="-FDKgQIa3XmzpDf6Ytec-113" value="what would you like to edit?&lt;div&gt;1,name&lt;/div&gt;&lt;div&gt;2, age&lt;/div&gt;&lt;div&gt;3, address&lt;/div&gt;&lt;div&gt;4, email&lt;/div&gt;&lt;div&gt;5, contact&lt;/div&gt;&lt;div&gt;6, course&lt;/div&gt;" style="strokeWidth=2;html=1;shape=mxgraph.flowchart.delay;whiteSpace=wrap;direction=west;" vertex="1" parent="1">
          <mxGeometry x="141" y="971" width="184" height="138" as="geometry" />
        </mxCell>
        <mxCell id="-FDKgQIa3XmzpDf6Ytec-115" value="e" style="ellipse;whiteSpace=wrap;html=1;aspect=fixed;" vertex="1" parent="1">
          <mxGeometry x="348" y="1021" width="38" height="38" as="geometry" />
        </mxCell>
        <mxCell id="-FDKgQIa3XmzpDf6Ytec-119" style="edgeStyle=none;curved=1;rounded=0;orthogonalLoop=1;jettySize=auto;html=1;fontSize=12;startSize=8;endSize=8;" edge="1" parent="1" source="-FDKgQIa3XmzpDf6Ytec-118" target="-FDKgQIa3XmzpDf6Ytec-72">
          <mxGeometry relative="1" as="geometry" />
        </mxCell>
        <mxCell id="-FDKgQIa3XmzpDf6Ytec-118" value="e" style="ellipse;whiteSpace=wrap;html=1;aspect=fixed;" vertex="1" parent="1">
          <mxGeometry x="385" y="728" width="38" height="38" as="geometry" />
        </mxCell>
        <mxCell id="-FDKgQIa3XmzpDf6Ytec-173" style="edgeStyle=none;curved=1;rounded=0;orthogonalLoop=1;jettySize=auto;html=1;entryX=0.5;entryY=0;entryDx=0;entryDy=0;fontSize=12;startSize=8;endSize=8;" edge="1" parent="1" source="-FDKgQIa3XmzpDf6Ytec-120" target="-FDKgQIa3XmzpDf6Ytec-171">
          <mxGeometry relative="1" as="geometry" />
        </mxCell>
        <mxCell id="-FDKgQIa3XmzpDf6Ytec-120" value="if 2" style="rhombus;whiteSpace=wrap;html=1;" vertex="1" parent="1">
          <mxGeometry x="-242" y="652" width="59" height="61" as="geometry" />
        </mxCell>
        <mxCell id="-FDKgQIa3XmzpDf6Ytec-121" style="edgeStyle=none;curved=1;rounded=0;orthogonalLoop=1;jettySize=auto;html=1;entryX=0.542;entryY=0.126;entryDx=0;entryDy=0;entryPerimeter=0;fontSize=12;startSize=8;endSize=8;" edge="1" parent="1" source="-FDKgQIa3XmzpDf6Ytec-97" target="-FDKgQIa3XmzpDf6Ytec-120">
          <mxGeometry relative="1" as="geometry" />
        </mxCell>
        <mxCell id="-FDKgQIa3XmzpDf6Ytec-132" style="edgeStyle=none;curved=1;rounded=0;orthogonalLoop=1;jettySize=auto;html=1;entryX=0.5;entryY=0;entryDx=0;entryDy=0;fontSize=12;startSize=8;endSize=8;" edge="1" parent="1" source="-FDKgQIa3XmzpDf6Ytec-124" target="-FDKgQIa3XmzpDf6Ytec-131">
          <mxGeometry relative="1" as="geometry" />
        </mxCell>
        <mxCell id="-FDKgQIa3XmzpDf6Ytec-124" value="if 1" style="rhombus;whiteSpace=wrap;html=1;" vertex="1" parent="1">
          <mxGeometry x="-695" y="709" width="44.67" height="42.5" as="geometry" />
        </mxCell>
        <mxCell id="-FDKgQIa3XmzpDf6Ytec-126" value="teacher:Carl Joseph Jimenez&lt;div&gt;Schedule:Thursday 7:00 am - 12:00 pm&lt;/div&gt;&lt;div&gt;Subject:Fundamentals of Programming 1 (Cc112)&lt;/div&gt;&lt;div&gt;&lt;br&gt;&lt;/div&gt;&lt;div&gt;&amp;nbsp;Press &#39;B&#39; to go back or any other key to return to menu:&lt;/div&gt;" style="strokeWidth=2;html=1;shape=mxgraph.flowchart.delay;whiteSpace=wrap;direction=west;" vertex="1" parent="1">
          <mxGeometry x="-562.5" y="1300" width="171" height="128.5" as="geometry" />
        </mxCell>
        <mxCell id="-FDKgQIa3XmzpDf6Ytec-127" value="teacher:Raiven Gordon&lt;div&gt;Schedule:Monday 9:00 am - 2:00 pm&lt;/div&gt;&lt;div&gt;Subject:Introduction to Computing&lt;/div&gt;&lt;div&gt;&lt;br&gt;&lt;/div&gt;&lt;div&gt;&amp;nbsp;Press &#39;B&#39; to go back or any other key to return to menu:&lt;/div&gt;" style="strokeWidth=2;html=1;shape=mxgraph.flowchart.delay;whiteSpace=wrap;direction=west;" vertex="1" parent="1">
          <mxGeometry x="-566.5" y="1162" width="171" height="128.5" as="geometry" />
        </mxCell>
        <mxCell id="-FDKgQIa3XmzpDf6Ytec-128" value="teacher:Nori Lacerna&lt;div&gt;Schedule:Saturday 1:00 pm - 4:00 pm&lt;/div&gt;&lt;div&gt;Subject:Readings in Philippines History (Ge3)&lt;/div&gt;&lt;div&gt;&lt;br&gt;&lt;/div&gt;&lt;div&gt;&amp;nbsp;Press &#39;B&#39; to go back or any other key to return to menu:&lt;/div&gt;" style="strokeWidth=2;html=1;shape=mxgraph.flowchart.delay;whiteSpace=wrap;direction=west;" vertex="1" parent="1">
          <mxGeometry x="-567.6700000000001" y="1020" width="172.17" height="133" as="geometry" />
        </mxCell>
        <mxCell id="-FDKgQIa3XmzpDf6Ytec-129" value="teacher:&amp;nbsp;Jude Rodriguez&lt;div&gt;Schedule:&amp;nbsp;Saturday 10:00 am - 1:00 pm&lt;/div&gt;&lt;div&gt;Subject:Mathematics in the Modern World (Ge2)&lt;/div&gt;&lt;div&gt;&lt;br&gt;&lt;/div&gt;&lt;div&gt;&amp;nbsp;Press &#39;B&#39; to go back or any other key to return to menu:&lt;/div&gt;" style="strokeWidth=2;html=1;shape=mxgraph.flowchart.delay;whiteSpace=wrap;direction=west;" vertex="1" parent="1">
          <mxGeometry x="-566.5" y="885" width="171" height="128.5" as="geometry" />
        </mxCell>
        <mxCell id="-FDKgQIa3XmzpDf6Ytec-130" style="edgeStyle=none;curved=1;rounded=0;orthogonalLoop=1;jettySize=auto;html=1;entryX=0.923;entryY=0.82;entryDx=0;entryDy=0;entryPerimeter=0;fontSize=12;startSize=8;endSize=8;" edge="1" parent="1" source="-FDKgQIa3XmzpDf6Ytec-124" target="-FDKgQIa3XmzpDf6Ytec-111">
          <mxGeometry relative="1" as="geometry" />
        </mxCell>
        <mxCell id="-FDKgQIa3XmzpDf6Ytec-133" style="edgeStyle=none;curved=1;rounded=0;orthogonalLoop=1;jettySize=auto;html=1;fontSize=12;startSize=8;endSize=8;" edge="1" parent="1" source="-FDKgQIa3XmzpDf6Ytec-131" target="-FDKgQIa3XmzpDf6Ytec-129">
          <mxGeometry relative="1" as="geometry" />
        </mxCell>
        <mxCell id="-FDKgQIa3XmzpDf6Ytec-136" style="edgeStyle=none;curved=1;rounded=0;orthogonalLoop=1;jettySize=auto;html=1;fontSize=12;startSize=8;endSize=8;" edge="1" parent="1" source="-FDKgQIa3XmzpDf6Ytec-131" target="-FDKgQIa3XmzpDf6Ytec-134">
          <mxGeometry relative="1" as="geometry" />
        </mxCell>
        <mxCell id="-FDKgQIa3XmzpDf6Ytec-131" value="if 2" style="rhombus;whiteSpace=wrap;html=1;" vertex="1" parent="1">
          <mxGeometry x="-691" y="772" width="44.67" height="42.5" as="geometry" />
        </mxCell>
        <mxCell id="-FDKgQIa3XmzpDf6Ytec-137" style="edgeStyle=none;curved=1;rounded=0;orthogonalLoop=1;jettySize=auto;html=1;fontSize=12;startSize=8;endSize=8;" edge="1" parent="1" source="-FDKgQIa3XmzpDf6Ytec-134" target="-FDKgQIa3XmzpDf6Ytec-128">
          <mxGeometry relative="1" as="geometry" />
        </mxCell>
        <mxCell id="-FDKgQIa3XmzpDf6Ytec-134" value="if 3" style="rhombus;whiteSpace=wrap;html=1;" vertex="1" parent="1">
          <mxGeometry x="-688" y="844.25" width="44.67" height="42.5" as="geometry" />
        </mxCell>
        <mxCell id="-FDKgQIa3XmzpDf6Ytec-146" style="edgeStyle=none;curved=1;rounded=0;orthogonalLoop=1;jettySize=auto;html=1;fontSize=12;startSize=8;endSize=8;" edge="1" parent="1" source="-FDKgQIa3XmzpDf6Ytec-138" target="-FDKgQIa3XmzpDf6Ytec-143">
          <mxGeometry relative="1" as="geometry" />
        </mxCell>
        <mxCell id="-FDKgQIa3XmzpDf6Ytec-158" style="edgeStyle=none;curved=1;rounded=0;orthogonalLoop=1;jettySize=auto;html=1;fontSize=12;startSize=8;endSize=8;" edge="1" parent="1" source="-FDKgQIa3XmzpDf6Ytec-138" target="-FDKgQIa3XmzpDf6Ytec-127">
          <mxGeometry relative="1" as="geometry">
            <Array as="points">
              <mxPoint x="-605" y="1097" />
            </Array>
          </mxGeometry>
        </mxCell>
        <mxCell id="-FDKgQIa3XmzpDf6Ytec-138" value="if 4" style="rhombus;whiteSpace=wrap;html=1;" vertex="1" parent="1">
          <mxGeometry x="-682" y="924" width="44.67" height="47" as="geometry" />
        </mxCell>
        <mxCell id="-FDKgQIa3XmzpDf6Ytec-140" style="edgeStyle=none;curved=1;rounded=0;orthogonalLoop=1;jettySize=auto;html=1;entryX=0.451;entryY=0.146;entryDx=0;entryDy=0;entryPerimeter=0;fontSize=12;startSize=8;endSize=8;" edge="1" parent="1" source="-FDKgQIa3XmzpDf6Ytec-134" target="-FDKgQIa3XmzpDf6Ytec-138">
          <mxGeometry relative="1" as="geometry" />
        </mxCell>
        <mxCell id="-FDKgQIa3XmzpDf6Ytec-148" style="edgeStyle=none;curved=1;rounded=0;orthogonalLoop=1;jettySize=auto;html=1;entryX=0.5;entryY=0;entryDx=0;entryDy=0;fontSize=12;startSize=8;endSize=8;" edge="1" parent="1" source="-FDKgQIa3XmzpDf6Ytec-143" target="-FDKgQIa3XmzpDf6Ytec-144">
          <mxGeometry relative="1" as="geometry" />
        </mxCell>
        <mxCell id="-FDKgQIa3XmzpDf6Ytec-143" value="if 5" style="rhombus;whiteSpace=wrap;html=1;" vertex="1" parent="1">
          <mxGeometry x="-697" y="1047" width="44.67" height="49" as="geometry" />
        </mxCell>
        <mxCell id="-FDKgQIa3XmzpDf6Ytec-154" style="edgeStyle=none;curved=1;rounded=0;orthogonalLoop=1;jettySize=auto;html=1;fontSize=12;startSize=8;endSize=8;" edge="1" parent="1" source="-FDKgQIa3XmzpDf6Ytec-144" target="-FDKgQIa3XmzpDf6Ytec-153">
          <mxGeometry relative="1" as="geometry" />
        </mxCell>
        <mxCell id="-FDKgQIa3XmzpDf6Ytec-144" value="if 6" style="rhombus;whiteSpace=wrap;html=1;" vertex="1" parent="1">
          <mxGeometry x="-710" y="1179" width="44.67" height="49" as="geometry" />
        </mxCell>
        <mxCell id="371tOKSA2adxah5dx-po-2" style="edgeStyle=none;curved=1;rounded=0;orthogonalLoop=1;jettySize=auto;html=1;fontSize=12;startSize=8;endSize=8;" edge="1" parent="1" source="-FDKgQIa3XmzpDf6Ytec-153" target="371tOKSA2adxah5dx-po-1">
          <mxGeometry relative="1" as="geometry" />
        </mxCell>
        <mxCell id="-FDKgQIa3XmzpDf6Ytec-153" value="if 7" style="rhombus;whiteSpace=wrap;html=1;" vertex="1" parent="1">
          <mxGeometry x="-713" y="1296" width="44" height="49" as="geometry" />
        </mxCell>
        <mxCell id="-FDKgQIa3XmzpDf6Ytec-156" value="teacher:&amp;nbsp;Michael Atienza&lt;div&gt;Schedule:&amp;nbsp;&lt;span style=&quot;background-color: transparent;&quot;&gt;Tuesday 7:00 am - 8:45 am: PATHFIT1&lt;/span&gt;&lt;/div&gt;&lt;div&gt;&amp;nbsp; &amp;nbsp; &amp;nbsp; &amp;nbsp; &amp;nbsp; &amp;nbsp; &amp;nbsp; &amp;nbsp; &amp;nbsp; &amp;nbsp; &amp;nbsp; &amp;nbsp; &amp;nbsp;Wednesday 9:00 am - 12:00 pm: NSTP1&lt;/div&gt;&lt;div&gt;&amp;nbsp; &amp;nbsp; &amp;nbsp; &amp;nbsp; &amp;nbsp; &amp;nbsp; &amp;nbsp; &amp;nbsp; &amp;nbsp; &amp;nbsp; &amp;nbsp; &amp;nbsp; &amp;nbsp;Wednesday 12:00 pm - 1:00 pm: PLS&lt;/div&gt;&lt;div&gt;&lt;br&gt;&lt;/div&gt;&lt;div&gt;&amp;nbsp;Press &#39;B&#39; to go back or any other key to return to menu:&lt;/div&gt;" style="strokeWidth=2;html=1;shape=mxgraph.flowchart.delay;whiteSpace=wrap;direction=west;" vertex="1" parent="1">
          <mxGeometry x="-630" y="1444" width="306" height="154" as="geometry" />
        </mxCell>
        <mxCell id="-FDKgQIa3XmzpDf6Ytec-159" style="edgeStyle=none;curved=1;rounded=0;orthogonalLoop=1;jettySize=auto;html=1;entryX=0.92;entryY=0.864;entryDx=0;entryDy=0;entryPerimeter=0;fontSize=12;startSize=8;endSize=8;" edge="1" parent="1" source="-FDKgQIa3XmzpDf6Ytec-143" target="-FDKgQIa3XmzpDf6Ytec-126">
          <mxGeometry relative="1" as="geometry" />
        </mxCell>
        <mxCell id="-FDKgQIa3XmzpDf6Ytec-161" style="edgeStyle=none;curved=1;rounded=0;orthogonalLoop=1;jettySize=auto;html=1;entryX=0.866;entryY=0.92;entryDx=0;entryDy=0;entryPerimeter=0;fontSize=12;startSize=8;endSize=8;" edge="1" parent="1" source="-FDKgQIa3XmzpDf6Ytec-144">
          <mxGeometry relative="1" as="geometry">
            <mxPoint x="-570.9960000000001" y="1450.3199999999993" as="targetPoint" />
          </mxGeometry>
        </mxCell>
        <mxCell id="-FDKgQIa3XmzpDf6Ytec-166" value="E" style="ellipse;whiteSpace=wrap;html=1;aspect=fixed;" vertex="1" parent="1">
          <mxGeometry x="272" y="501" width="47" height="47" as="geometry" />
        </mxCell>
        <mxCell id="-FDKgQIa3XmzpDf6Ytec-167" style="edgeStyle=none;curved=1;rounded=0;orthogonalLoop=1;jettySize=auto;html=1;entryX=0.152;entryY=0.986;entryDx=0;entryDy=0;entryPerimeter=0;fontSize=12;startSize=8;endSize=8;" edge="1" parent="1" source="-FDKgQIa3XmzpDf6Ytec-166" target="-FDKgQIa3XmzpDf6Ytec-73">
          <mxGeometry relative="1" as="geometry" />
        </mxCell>
        <mxCell id="-FDKgQIa3XmzpDf6Ytec-168" style="edgeStyle=none;curved=1;rounded=0;orthogonalLoop=1;jettySize=auto;html=1;entryX=0.942;entryY=0.789;entryDx=0;entryDy=0;entryPerimeter=0;fontSize=12;startSize=8;endSize=8;" edge="1" parent="1" source="-FDKgQIa3XmzpDf6Ytec-97" target="-FDKgQIa3XmzpDf6Ytec-72">
          <mxGeometry relative="1" as="geometry" />
        </mxCell>
        <mxCell id="-FDKgQIa3XmzpDf6Ytec-169" style="edgeStyle=none;curved=1;rounded=0;orthogonalLoop=1;jettySize=auto;html=1;entryX=0.003;entryY=0.933;entryDx=0;entryDy=0;entryPerimeter=0;fontSize=12;startSize=8;endSize=8;" edge="1" parent="1" source="-FDKgQIa3XmzpDf6Ytec-120" target="-FDKgQIa3XmzpDf6Ytec-112">
          <mxGeometry relative="1" as="geometry" />
        </mxCell>
        <mxCell id="-FDKgQIa3XmzpDf6Ytec-180" style="edgeStyle=none;curved=1;rounded=0;orthogonalLoop=1;jettySize=auto;html=1;fontSize=12;startSize=8;endSize=8;" edge="1" parent="1" source="-FDKgQIa3XmzpDf6Ytec-171" target="-FDKgQIa3XmzpDf6Ytec-177">
          <mxGeometry relative="1" as="geometry" />
        </mxCell>
        <mxCell id="-FDKgQIa3XmzpDf6Ytec-202" style="edgeStyle=none;curved=1;rounded=0;orthogonalLoop=1;jettySize=auto;html=1;entryX=0.5;entryY=0;entryDx=0;entryDy=0;fontSize=12;startSize=8;endSize=8;" edge="1" parent="1" source="-FDKgQIa3XmzpDf6Ytec-171" target="-FDKgQIa3XmzpDf6Ytec-201">
          <mxGeometry relative="1" as="geometry" />
        </mxCell>
        <mxCell id="-FDKgQIa3XmzpDf6Ytec-171" value="if 3" style="rhombus;whiteSpace=wrap;html=1;" vertex="1" parent="1">
          <mxGeometry x="-238" y="737" width="59" height="61" as="geometry" />
        </mxCell>
        <mxCell id="-FDKgQIa3XmzpDf6Ytec-208" style="edgeStyle=none;curved=1;rounded=0;orthogonalLoop=1;jettySize=auto;html=1;fontSize=12;startSize=8;endSize=8;" edge="1" parent="1" source="-FDKgQIa3XmzpDf6Ytec-175" target="-FDKgQIa3XmzpDf6Ytec-207">
          <mxGeometry relative="1" as="geometry" />
        </mxCell>
        <mxCell id="-FDKgQIa3XmzpDf6Ytec-175" value="PHILTECH-GMA&lt;div&gt;Philippine Technological Institute of&amp;nbsp;Science, Arts, and Trade - Central INC.&amp;nbsp;&lt;/div&gt;&lt;div&gt;2nd Flr. CRDM Building,&lt;/div&gt;&lt;div&gt;Congressional Road, Cor. Gov. Drive,&lt;/div&gt;&lt;div&gt;Brgy. G. Maderan, GMA, Cavite&lt;/div&gt;&lt;div&gt;&lt;br&gt;&lt;/div&gt;&lt;div&gt;1, About Senior High&lt;/div&gt;&lt;div&gt;2, About College&lt;/div&gt;&lt;div&gt;&lt;br&gt;&lt;/div&gt;&lt;div&gt;Press the number you want to check&lt;/div&gt;&lt;div&gt;&lt;br&gt;&lt;/div&gt;&lt;div&gt;pressing other key returns to menu:&amp;nbsp;&amp;nbsp;(P) Contact Info&lt;/div&gt;" style="strokeWidth=2;html=1;shape=mxgraph.flowchart.delay;whiteSpace=wrap;direction=west;" vertex="1" parent="1">
          <mxGeometry x="-305" y="954.52" width="280" height="196.5" as="geometry" />
        </mxCell>
        <mxCell id="-FDKgQIa3XmzpDf6Ytec-184" style="edgeStyle=none;curved=1;rounded=0;orthogonalLoop=1;jettySize=auto;html=1;fontSize=12;startSize=8;endSize=8;" edge="1" parent="1" source="-FDKgQIa3XmzpDf6Ytec-176" target="-FDKgQIa3XmzpDf6Ytec-185">
          <mxGeometry relative="1" as="geometry">
            <mxPoint x="21" y="997.0951974051338" as="targetPoint" />
          </mxGeometry>
        </mxCell>
        <mxCell id="-FDKgQIa3XmzpDf6Ytec-176" value="enter student id number:&lt;div&gt;enter purpose (e.g., job application, transfer):&lt;/div&gt;&lt;div&gt;enter request date (YYYY-MM-DD):&lt;/div&gt;&lt;div&gt;enter additional notes (e.g., Urgency, preferred format):&lt;/div&gt;&lt;div&gt;&lt;br&gt;&lt;/div&gt;" style="strokeWidth=2;html=1;shape=mxgraph.flowchart.delay;whiteSpace=wrap;direction=west;" vertex="1" parent="1">
          <mxGeometry x="-77" y="829.52" width="186" height="125" as="geometry" />
        </mxCell>
        <mxCell id="-FDKgQIa3XmzpDf6Ytec-181" style="edgeStyle=none;curved=1;rounded=0;orthogonalLoop=1;jettySize=auto;html=1;fontSize=12;startSize=8;endSize=8;" edge="1" parent="1" source="-FDKgQIa3XmzpDf6Ytec-177" target="-FDKgQIa3XmzpDf6Ytec-182">
          <mxGeometry relative="1" as="geometry">
            <mxPoint x="-74.82758620689651" y="853.4827586206898" as="targetPoint" />
          </mxGeometry>
        </mxCell>
        <mxCell id="-FDKgQIa3XmzpDf6Ytec-177" value="EOG request options&lt;div&gt;&lt;br&gt;&lt;/div&gt;&lt;div&gt;1, Certfication&lt;/div&gt;&lt;div&gt;2, Clearance&lt;/div&gt;" style="strokeWidth=2;html=1;shape=mxgraph.flowchart.delay;whiteSpace=wrap;direction=west;" vertex="1" parent="1">
          <mxGeometry x="-95" y="718.5" width="152" height="91" as="geometry" />
        </mxCell>
        <mxCell id="-FDKgQIa3XmzpDf6Ytec-199" style="edgeStyle=none;curved=1;rounded=0;orthogonalLoop=1;jettySize=auto;html=1;fontSize=12;startSize=8;endSize=8;" edge="1" parent="1" source="-FDKgQIa3XmzpDf6Ytec-182" target="-FDKgQIa3XmzpDf6Ytec-198">
          <mxGeometry relative="1" as="geometry" />
        </mxCell>
        <mxCell id="-FDKgQIa3XmzpDf6Ytec-182" value="if 1" style="rhombus;whiteSpace=wrap;html=1;" vertex="1" parent="1">
          <mxGeometry x="-134" y="817" width="48.83" height="52.52" as="geometry" />
        </mxCell>
        <mxCell id="-FDKgQIa3XmzpDf6Ytec-183" style="edgeStyle=none;curved=1;rounded=0;orthogonalLoop=1;jettySize=auto;html=1;entryX=0.966;entryY=0.701;entryDx=0;entryDy=0;entryPerimeter=0;fontSize=12;startSize=8;endSize=8;" edge="1" parent="1" source="-FDKgQIa3XmzpDf6Ytec-182" target="-FDKgQIa3XmzpDf6Ytec-176">
          <mxGeometry relative="1" as="geometry" />
        </mxCell>
        <mxCell id="-FDKgQIa3XmzpDf6Ytec-189" style="edgeStyle=none;curved=1;rounded=0;orthogonalLoop=1;jettySize=auto;html=1;fontSize=12;startSize=8;endSize=8;" edge="1" parent="1" source="-FDKgQIa3XmzpDf6Ytec-185" target="-FDKgQIa3XmzpDf6Ytec-190">
          <mxGeometry relative="1" as="geometry">
            <mxPoint x="27.71435546875" y="1018.9951974051339" as="targetPoint" />
          </mxGeometry>
        </mxCell>
        <mxCell id="-FDKgQIa3XmzpDf6Ytec-195" style="edgeStyle=none;curved=1;rounded=0;orthogonalLoop=1;jettySize=auto;html=1;fontSize=12;startSize=8;endSize=8;" edge="1" parent="1" source="-FDKgQIa3XmzpDf6Ytec-185" target="-FDKgQIa3XmzpDf6Ytec-193">
          <mxGeometry relative="1" as="geometry" />
        </mxCell>
        <mxCell id="-FDKgQIa3XmzpDf6Ytec-185" value="is the information correct?&lt;div&gt;Y/N&lt;/div&gt;" style="rhombus;whiteSpace=wrap;html=1;" vertex="1" parent="1">
          <mxGeometry x="-30.17" y="977.9951974051338" width="80" height="80" as="geometry" />
        </mxCell>
        <mxCell id="-FDKgQIa3XmzpDf6Ytec-190" value="F" style="ellipse;whiteSpace=wrap;html=1;aspect=fixed;" vertex="1" parent="1">
          <mxGeometry x="79" y="998" width="40" height="40" as="geometry" />
        </mxCell>
        <mxCell id="-FDKgQIa3XmzpDf6Ytec-191" value="F" style="ellipse;whiteSpace=wrap;html=1;aspect=fixed;" vertex="1" parent="1">
          <mxGeometry x="336" y="537" width="40" height="40" as="geometry" />
        </mxCell>
        <mxCell id="-FDKgQIa3XmzpDf6Ytec-192" style="edgeStyle=none;curved=1;rounded=0;orthogonalLoop=1;jettySize=auto;html=1;entryX=0.001;entryY=0.935;entryDx=0;entryDy=0;entryPerimeter=0;fontSize=12;startSize=8;endSize=8;" edge="1" parent="1" source="-FDKgQIa3XmzpDf6Ytec-191" target="-FDKgQIa3XmzpDf6Ytec-73">
          <mxGeometry relative="1" as="geometry" />
        </mxCell>
        <mxCell id="-FDKgQIa3XmzpDf6Ytec-193" value="f" style="ellipse;whiteSpace=wrap;html=1;aspect=fixed;" vertex="1" parent="1">
          <mxGeometry x="-5" y="1085" width="34" height="34" as="geometry" />
        </mxCell>
        <mxCell id="-FDKgQIa3XmzpDf6Ytec-196" value="f" style="ellipse;whiteSpace=wrap;html=1;aspect=fixed;" vertex="1" parent="1">
          <mxGeometry x="119" y="851" width="34" height="34" as="geometry" />
        </mxCell>
        <mxCell id="-FDKgQIa3XmzpDf6Ytec-197" style="edgeStyle=none;curved=1;rounded=0;orthogonalLoop=1;jettySize=auto;html=1;entryX=-0.003;entryY=0.68;entryDx=0;entryDy=0;entryPerimeter=0;fontSize=12;startSize=8;endSize=8;" edge="1" parent="1" source="-FDKgQIa3XmzpDf6Ytec-196" target="-FDKgQIa3XmzpDf6Ytec-176">
          <mxGeometry relative="1" as="geometry" />
        </mxCell>
        <mxCell id="-FDKgQIa3XmzpDf6Ytec-198" value="if 2" style="rhombus;whiteSpace=wrap;html=1;" vertex="1" parent="1">
          <mxGeometry x="-134" y="886.75" width="48.83" height="52.52" as="geometry" />
        </mxCell>
        <mxCell id="-FDKgQIa3XmzpDf6Ytec-200" style="edgeStyle=none;curved=1;rounded=0;orthogonalLoop=1;jettySize=auto;html=1;entryX=0.983;entryY=0.336;entryDx=0;entryDy=0;entryPerimeter=0;fontSize=12;startSize=8;endSize=8;" edge="1" parent="1" source="-FDKgQIa3XmzpDf6Ytec-198" target="-FDKgQIa3XmzpDf6Ytec-176">
          <mxGeometry relative="1" as="geometry" />
        </mxCell>
        <mxCell id="-FDKgQIa3XmzpDf6Ytec-204" style="edgeStyle=none;curved=1;rounded=0;orthogonalLoop=1;jettySize=auto;html=1;fontSize=12;startSize=8;endSize=8;" edge="1" parent="1" source="-FDKgQIa3XmzpDf6Ytec-201" target="-FDKgQIa3XmzpDf6Ytec-175">
          <mxGeometry relative="1" as="geometry" />
        </mxCell>
        <mxCell id="-FDKgQIa3XmzpDf6Ytec-201" value="if 4" style="rhombus;whiteSpace=wrap;html=1;" vertex="1" parent="1">
          <mxGeometry x="-364" y="989.5" width="59" height="61" as="geometry" />
        </mxCell>
        <mxCell id="ED_zbUeDH-0sP7J5wrKH-19" style="edgeStyle=orthogonalEdgeStyle;rounded=0;orthogonalLoop=1;jettySize=auto;html=1;entryX=0;entryY=0.5;entryDx=0;entryDy=0;" edge="1" parent="1" source="-FDKgQIa3XmzpDf6Ytec-206" target="ED_zbUeDH-0sP7J5wrKH-1">
          <mxGeometry relative="1" as="geometry" />
        </mxCell>
        <mxCell id="-FDKgQIa3XmzpDf6Ytec-206" value="COLLEGE&lt;div&gt;&amp;nbsp;50% DISCOUNT IN TUITION&lt;/div&gt;&lt;div&gt;Courses Offered:&lt;/div&gt;&lt;div&gt;- Bachelor of Technical Vocational&lt;/div&gt;&lt;div&gt;Teacher Education (BTVTEd)&lt;/div&gt;&lt;div&gt;&amp;nbsp;- Major in Food and Service Management&lt;/div&gt;&lt;div&gt;CHED Permit No. 048 Series 2021&lt;/div&gt;&lt;div&gt;- Bachelor of Science in Computer Science (BSCS)&lt;/div&gt;&lt;div&gt;CHED Permit No. 035 Series 2022&lt;/div&gt;&lt;div&gt;&amp;nbsp;- Bachelor of Science in Office Administration (BSOA)&lt;/div&gt;&lt;div&gt;CHED Permit No. 033 Series 2022&lt;/div&gt;&lt;div&gt;Upcoming Courses:&lt;/div&gt;&lt;div&gt;- Bachelor of Science in Psychology&lt;/div&gt;&lt;div&gt;SUNDAY CLASS&lt;/div&gt;&lt;div&gt;50% DISCOUNT IN TUITION&lt;/div&gt;&lt;div&gt;&amp;nbsp;Courses Available:&lt;/div&gt;&lt;div&gt;&amp;nbsp;- Bachelor of Technical Vocational&lt;/div&gt;&lt;div&gt;Teacher Education (BTVTEd)\&lt;/div&gt;&lt;div&gt;- Major in Food and Service Management&lt;/div&gt;&lt;div&gt;- Bachelor of Science in Computer Science (BSCS)&lt;/div&gt;&lt;div&gt;- Bachelor of Science in Office Administration (BSOA)&lt;/div&gt;&lt;div&gt;&amp;nbsp;(X) MENU&amp;nbsp; &amp;nbsp; (ANY KEY) RETURN&lt;/div&gt;" style="strokeWidth=2;html=1;shape=mxgraph.flowchart.delay;whiteSpace=wrap;direction=west;" vertex="1" parent="1">
          <mxGeometry x="-316" y="1680" width="397" height="318" as="geometry" />
        </mxCell>
        <mxCell id="-FDKgQIa3XmzpDf6Ytec-212" style="edgeStyle=none;curved=1;rounded=0;orthogonalLoop=1;jettySize=auto;html=1;entryX=0.5;entryY=0;entryDx=0;entryDy=0;fontSize=12;startSize=8;endSize=8;" edge="1" parent="1" source="-FDKgQIa3XmzpDf6Ytec-207" target="-FDKgQIa3XmzpDf6Ytec-211">
          <mxGeometry relative="1" as="geometry" />
        </mxCell>
        <mxCell id="-FDKgQIa3XmzpDf6Ytec-207" value="if 1" style="rhombus;whiteSpace=wrap;html=1;" vertex="1" parent="1">
          <mxGeometry x="-301" y="1167" width="59" height="61" as="geometry" />
        </mxCell>
        <mxCell id="-FDKgQIa3XmzpDf6Ytec-210" style="edgeStyle=none;curved=1;rounded=0;orthogonalLoop=1;jettySize=auto;html=1;entryX=0.913;entryY=0.852;entryDx=0;entryDy=0;entryPerimeter=0;fontSize=12;startSize=8;endSize=8;" edge="1" parent="1" source="-FDKgQIa3XmzpDf6Ytec-207" target="-FDKgQIa3XmzpDf6Ytec-71">
          <mxGeometry relative="1" as="geometry" />
        </mxCell>
        <mxCell id="-FDKgQIa3XmzpDf6Ytec-211" value="if 2" style="rhombus;whiteSpace=wrap;html=1;" vertex="1" parent="1">
          <mxGeometry x="-305" y="1438.38" width="59" height="61" as="geometry" />
        </mxCell>
        <mxCell id="-FDKgQIa3XmzpDf6Ytec-213" style="edgeStyle=none;curved=1;rounded=0;orthogonalLoop=1;jettySize=auto;html=1;entryX=0.914;entryY=0.852;entryDx=0;entryDy=0;entryPerimeter=0;fontSize=12;startSize=8;endSize=8;" edge="1" parent="1" source="-FDKgQIa3XmzpDf6Ytec-211" target="-FDKgQIa3XmzpDf6Ytec-206">
          <mxGeometry relative="1" as="geometry" />
        </mxCell>
        <mxCell id="371tOKSA2adxah5dx-po-1" value="E" style="ellipse;whiteSpace=wrap;html=1;aspect=fixed;" vertex="1" parent="1">
          <mxGeometry x="-721" y="1360" width="47" height="47" as="geometry" />
        </mxCell>
        <mxCell id="371tOKSA2adxah5dx-po-6" style="edgeStyle=none;curved=1;rounded=0;orthogonalLoop=1;jettySize=auto;html=1;fontSize=12;startSize=8;endSize=8;" edge="1" parent="1" source="371tOKSA2adxah5dx-po-3" target="371tOKSA2adxah5dx-po-5">
          <mxGeometry relative="1" as="geometry" />
        </mxCell>
        <mxCell id="371tOKSA2adxah5dx-po-3" value="if 5" style="rhombus;whiteSpace=wrap;html=1;" vertex="1" parent="1">
          <mxGeometry x="-398" y="1085" width="59" height="61" as="geometry" />
        </mxCell>
        <mxCell id="371tOKSA2adxah5dx-po-4" style="edgeStyle=none;curved=1;rounded=0;orthogonalLoop=1;jettySize=auto;html=1;entryX=0.479;entryY=0.054;entryDx=0;entryDy=0;entryPerimeter=0;fontSize=12;startSize=8;endSize=8;" edge="1" parent="1" source="-FDKgQIa3XmzpDf6Ytec-201" target="371tOKSA2adxah5dx-po-3">
          <mxGeometry relative="1" as="geometry" />
        </mxCell>
        <mxCell id="371tOKSA2adxah5dx-po-5" value="G" style="ellipse;whiteSpace=wrap;html=1;aspect=fixed;" vertex="1" parent="1">
          <mxGeometry x="-339" y="1119" width="40" height="40" as="geometry" />
        </mxCell>
        <mxCell id="371tOKSA2adxah5dx-po-8" style="edgeStyle=none;curved=1;rounded=0;orthogonalLoop=1;jettySize=auto;html=1;fontSize=12;startSize=8;endSize=8;" edge="1" parent="1" source="371tOKSA2adxah5dx-po-7" target="-FDKgQIa3XmzpDf6Ytec-11">
          <mxGeometry relative="1" as="geometry" />
        </mxCell>
        <mxCell id="371tOKSA2adxah5dx-po-7" value="G" style="ellipse;whiteSpace=wrap;html=1;aspect=fixed;" vertex="1" parent="1">
          <mxGeometry x="297" y="93" width="40" height="40" as="geometry" />
        </mxCell>
        <mxCell id="ED_zbUeDH-0sP7J5wrKH-7" style="edgeStyle=orthogonalEdgeStyle;rounded=0;orthogonalLoop=1;jettySize=auto;html=1;" edge="1" parent="1" source="ED_zbUeDH-0sP7J5wrKH-1" target="ED_zbUeDH-0sP7J5wrKH-6">
          <mxGeometry relative="1" as="geometry" />
        </mxCell>
        <mxCell id="ED_zbUeDH-0sP7J5wrKH-15" style="edgeStyle=orthogonalEdgeStyle;rounded=0;orthogonalLoop=1;jettySize=auto;html=1;" edge="1" parent="1" source="ED_zbUeDH-0sP7J5wrKH-1" target="ED_zbUeDH-0sP7J5wrKH-16">
          <mxGeometry relative="1" as="geometry">
            <mxPoint x="-88" y="1621.7184890220906" as="targetPoint" />
          </mxGeometry>
        </mxCell>
        <mxCell id="ED_zbUeDH-0sP7J5wrKH-1" value="if the user input is X" style="rhombus;whiteSpace=wrap;html=1;" vertex="1" parent="1">
          <mxGeometry x="-128" y="1518" width="80" height="80" as="geometry" />
        </mxCell>
        <mxCell id="ED_zbUeDH-0sP7J5wrKH-6" value="g" style="ellipse;whiteSpace=wrap;html=1;aspect=fixed;" vertex="1" parent="1">
          <mxGeometry x="-16" y="1542.5" width="31" height="31" as="geometry" />
        </mxCell>
        <mxCell id="ED_zbUeDH-0sP7J5wrKH-8" value="g" style="ellipse;whiteSpace=wrap;html=1;aspect=fixed;" vertex="1" parent="1">
          <mxGeometry x="345" y="659" width="31" height="31" as="geometry" />
        </mxCell>
        <mxCell id="ED_zbUeDH-0sP7J5wrKH-14" style="edgeStyle=orthogonalEdgeStyle;rounded=0;orthogonalLoop=1;jettySize=auto;html=1;entryX=0.012;entryY=0.133;entryDx=0;entryDy=0;entryPerimeter=0;" edge="1" parent="1" source="ED_zbUeDH-0sP7J5wrKH-8" target="-FDKgQIa3XmzpDf6Ytec-73">
          <mxGeometry relative="1" as="geometry" />
        </mxCell>
        <mxCell id="ED_zbUeDH-0sP7J5wrKH-16" value="h" style="ellipse;whiteSpace=wrap;html=1;aspect=fixed;" vertex="1" parent="1">
          <mxGeometry x="-106.86" y="1626" width="37.72" height="37.72" as="geometry" />
        </mxCell>
        <mxCell id="ED_zbUeDH-0sP7J5wrKH-17" value="h" style="ellipse;whiteSpace=wrap;html=1;aspect=fixed;" vertex="1" parent="1">
          <mxGeometry x="60.280000000000015" y="640.28" width="37.72" height="37.72" as="geometry" />
        </mxCell>
        <mxCell id="ED_zbUeDH-0sP7J5wrKH-18" style="edgeStyle=orthogonalEdgeStyle;rounded=0;orthogonalLoop=1;jettySize=auto;html=1;entryX=0.974;entryY=0.276;entryDx=0;entryDy=0;entryPerimeter=0;" edge="1" parent="1" source="ED_zbUeDH-0sP7J5wrKH-17" target="-FDKgQIa3XmzpDf6Ytec-73">
          <mxGeometry relative="1" as="geometry" />
        </mxCell>
      </root>
    </mxGraphModel>
  </diagram>
</mxfile>
